<svg id="Layer_1" data-name="Layer 1" xmlns="http://www.w3.org/2000/svg" viewBox="0 0 431.73 437.75"><defs><style>.cls-1{fill-rule:evenodd;}</style></defs><title>mygipedo</title><path class="cls-1" d="M420.62,342.73A159.79,159.79,0,0,1,411,356.79c-5.55,7.4-11.54,14.46-17.77,21.3-7.92,8.71-16.24,17.05-24.85,25.07q-12.24,11.4-25.25,21.94c-4.49,3.64-9.05,7.18-13.63,10.69-8.58,6.56-17.23,13-26.06,19.24-4.39,3.09-8.83,6.12-13.36,9a118.59,118.59,0,0,1-13.68,7.7,30.84,30.84,0,0,1-9.07,2.91,17.44,17.44,0,0,1-4.45,0,26,26,0,0,1-6.45-1.78,62.12,62.12,0,0,1-6.45-3c-3.36-1.78-6.63-3.75-9.84-5.79-5.63-3.57-11.11-7.37-16.53-11.24-7.73-5.52-15.34-11.23-22.89-17-5.35-4.1-10.65-8.23-15.86-12.51q-12.85-10.54-25-21.95c-7.34-6.92-14.47-14.08-21.31-21.5-5.92-6.42-11.63-13.05-17-19.94-2.25-2.89-4.45-5.83-6.54-8.84.7.06,1.39.11,2.09.13q7.84.09,15.69,0a32.5,32.5,0,0,0,3.54-.3,29.91,29.91,0,0,0,7.7-2.21c2.23,2.74,4.52,5.43,6.84,8.09,6.52,7.44,13.38,14.59,20.46,21.5q13,12.67,27,24.28c8.31,6.9,16.89,13.47,25.53,19.95,7.8,5.86,15.67,11.63,23.77,17.07,3.09,2.08,6.21,4.11,9.41,6a70.25,70.25,0,0,0,7.8,4.16l.23.1a65.44,65.44,0,0,0,8-4.26c3.63-2.17,7.17-4.48,10.65-6.86,9-6.16,17.83-12.65,26.54-19.25,7.28-5.52,14.5-11.1,21.53-16.93A421,421,0,0,0,378,358.34q3.15-3.55,6.19-7.19l.75,0q7.85.09,15.68,0a30.25,30.25,0,0,0,9-1.64,30.81,30.81,0,0,0,6-2.86,30.13,30.13,0,0,0,5.05-3.95Z" transform="translate(-49.27 -37.04)"/><path class="cls-1" d="M330,154.93,406.58,85.5h0L428.66,64c.17.33.32.66.46,1,1.63,3.88,1.9,8.17,2,12.32.31,40.93.6,81.86.63,122.79-3.51-.64-7-1.32-10.51-2.09a127,127,0,0,1-14.09-3.86q-.06-40.17-.36-80.35l-15,14.33L371.3,146.89c-.05,0-11.89,10.6-20.83,18.57l-.87-.44L330,154.93Z" transform="translate(-49.27 -37.04)"/><path class="cls-1" d="M98.71,141.44q.18-32.07.44-64.16c.1-4.15.37-8.44,2-12.32a21.35,21.35,0,0,1,7.18-8.61c1.14-.87,2.32-1.67,3.52-2.44a26.65,26.65,0,0,1,2.94-1.77A22.77,22.77,0,0,1,117.9,51c1.67-.51,3.35-.95,5.06-1.35,4-.94,8.14-1.68,12.23-2.36,2.88-.48,5.75-.92,8.64-1.33,18-2.59,36.17-4.36,54.32-5.8,20.68-1.65,41.42-2.83,62.16-3.08q3.62,0,7.21,0c20.57.16,41.12,1.29,61.63,2.87q15.93,1.22,31.83,2.9c8.5.91,17,1.92,25.47,3.13,2.88.41,5.75.85,8.63,1.33,4.1.68,8.19,1.42,12.24,2.36,1.7.4,3.39.84,5.06,1.35.33.1,2.18.79,2.51.9L394.42,71.15h.05S322.71,133.61,310,144.69q-10.57-5.4-21.15-10.8l76.84-65.82q-7.74-.88-15.49-1.64-18.71-1.83-37.44-3c-13.53-.86-27.07-1.49-40.63-1.72q-4.6-.06-9.21,0c-14.16.1-28.31.71-42.44,1.58q-21.57,1.34-43.1,3.48c-10,1-20,2.16-30,3.59-3.9.56-7.79,1.16-11.66,1.86-3.3.59-6.6,1.24-9.84,2.13l-.33.1-1.49,1-.16.12c0,.73-.08,1.46-.1,2.19-.19,26-.61,52-.95,78a59.47,59.47,0,0,1-16-7.42,52.44,52.44,0,0,1-8.1-6.76Z" transform="translate(-49.27 -37.04)"/><path d="M434.61,221.1c-15.24-2.69-32.52-5.74-46.44-13.21-35.38-19-167.42-85.94-172.58-88.55a8.83,8.83,0,0,0-5-1.62,9,9,0,0,0-7.14,3.61l-19,25.51a4.14,4.14,0,0,0-1.25,3.86c.89,4.51,11,10.28,30.13,17.14-7.81,3.88-33.24,11.93-60.31,11.93-49.6,0-67.3-21.8-75.81-32.27-3.25-4-5.21-6.42-7.87-6.42a4.52,4.52,0,0,0-3.54,1.9c-26.08,33.15-15.37,83.21-7.55,119.76.37,1.72.74,3.42,1.09,5.08,5.17,24.4,15.17,27.83,31.06,31.4,2.37.53,7.81,1,15.67,1.42l2.26,21.72a9.73,9.73,0,0,0,9.57,8.62h14.25a9.72,9.72,0,0,0,9.57-8.62l2.13-20.44c4.39.1,9,.19,13.74.28l2.1,20.16a9.71,9.71,0,0,0,9.57,8.62h14.24a9.71,9.71,0,0,0,9.57-8.62l2-19.58c40.66.5,87,.75,127.64.86l1.95,18.72a9.72,9.72,0,0,0,9.58,8.62H348.5a9.71,9.71,0,0,0,9.57-8.62L360,303.72h14.08l2,18.63a9.71,9.71,0,0,0,9.57,8.62h14.24a9.71,9.71,0,0,0,9.57-8.62l2.13-20.4a130.73,130.73,0,0,0,38.83-12.66C470.12,278.91,481,264.94,481,249.94c0-20.64-21.5-24.44-46.39-28.84ZM326.55,202.83,277.26,248l-20.51,18.78-.11.08-32.26,0s-.06-.09,0-.09l77.78-70.48a.28.28,0,0,1,.13,0l24.32,6.5a.08.08,0,0,1,0,.12Zm-133.2,63.46h0l-33.91.43s-.07,0-.11-.09,0-.11,0-.11h0l103.06-92a.16.16,0,0,1,.16,0l24.18,6.5c.07,0,.08,0,.09.08a.12.12,0,0,1,0,.13l-93.28,85-.14.08Z" transform="translate(-49.27 -37.04)"/></svg>