<?xml version="1.0" encoding="utf-8"?>
<!-- Generator: Adobe Illustrator 18.1.0, SVG Export Plug-In . SVG Version: 6.00 Build 0)  -->
<!DOCTYPE svg PUBLIC "-//W3C//DTD SVG 1.1//EN" "http://www.w3.org/Graphics/SVG/1.1/DTD/svg11.dtd">
<svg version="1.1" id="Layer_1" xmlns="http://www.w3.org/2000/svg" xmlns:xlink="http://www.w3.org/1999/xlink" x="0px" y="0px"
	 viewBox="0 0 72 86" enable-background="new 0 0 72 86" xml:space="preserve">
<path opacity="0.5" fill="#FFFFFF" d="M46.8,11.6c1.8,0,3.4,1.5,3.4,3.4l0,0c0,1.8-1.5,3.4-3.4,3.4h-1.3v15.4l14.2,32.1
	c1.3,4.4-2,8.8-6.6,8.8H20.5c-4.7,0-8.1-4.6-6.6-9.1l13.6-31.7V18.3h-1.3c-1.8,0-3.4-1.5-3.4-3.4l0,0c0-1.8,1.5-3.4,3.4-3.4H46.8
	 M46.8,9H26.3c-3.3,0-5.9,2.6-5.9,5.9c0,2.8,2,5.2,4.6,5.8v12.4L11.6,64.3v0.1v0.1c-1,3-0.6,6.1,1.3,8.6c1.8,2.6,4.6,4,7.7,4h32.6
	c3,0,5.8-1.4,7.5-3.8c1.8-2.4,2.3-5.4,1.5-8.2l-0.1-0.2l-0.1-0.2l-14-31.6V20.7c2.6-0.6,4.6-3,4.6-5.8C52.7,11.6,50.1,9,46.8,9
	L46.8,9z"/>
<g opacity="0.5">
	<path fill="#FFFFFF" d="M58.3,66.6L47.4,42c0,0-2.8,2.8-10.5,1.1c-7.5-1.7-10.2-0.9-10.3-0.9l-10.3,24c-0.6,1.5-0.3,3.3,0.6,4.6
		c0.9,1.4,2.4,2.2,4,2.2h32.7c1.6,0,3-0.8,3.9-2.1C58.4,69.7,58.7,68,58.3,66.6z M44.6,52.6l-2.8,5l-0.1-0.3l-2.2-8
		C41.7,49.8,43.4,50.9,44.6,52.6z M37.2,48.9c0.3,0,0.7,0,1.2,0.1l1.4,5.5c-0.2-0.1-0.2-0.2-0.2-0.2l-7.2-4.2
		C33.9,49.3,35.5,48.9,37.2,48.9z M31.3,51l5,2.8l-0.3,0.1l-8,2.2C28.5,54,29.6,52.3,31.3,51z M27.6,58.4c0-0.3,0-0.7,0.1-1.2
		l5.5-1.4C33.1,56,33,56,33,56l-4.2,7.2C28,61.7,27.6,60.1,27.6,58.4z M29.7,64.4l2.8-5c0,0.2,0.1,0.2,0.1,0.3l2.2,8
		C32.6,67.2,31,66,29.7,64.4z M37.1,68.1c-0.3,0-0.7,0-1.2-0.1l-1.4-5.5c0.2,0.1,0.2,0.2,0.2,0.2l7.2,4.2
		C40.4,67.7,38.8,68.1,37.1,68.1z M43,66l-5-2.8c0.2,0,0.2-0.1,0.3-0.1l8-2.2C45.8,63,44.7,64.7,43,66z M46.6,59.7l-5.5,1.4
		c0.1-0.2,0.2-0.2,0.2-0.2l4.2-7.2c0.9,1.5,1.3,3.1,1.3,4.8C46.7,58.8,46.7,59.2,46.6,59.7z"/>
</g>
</svg>
